# xmcd
#
# Track frame offsets:
#	150
#	19257
#	36366
#	51494
#	67067
#	83442
#	100513
#	117684
#	133076
#	149341
#	169787
#
# Disc length: 2322 seconds
# Revision: 1
# Processed by: cddbd v1.5.2PL0 Copyright (c) Steve Scherf et al.
# Submitted via: dBpowerAMP V12.0
#
DISCID=9e09100b
DTITLE=The Wood Brothers - Kingdom In My Mind
DYEAR=2020
DGENRE=Americana
TTITLE0=Alabaster
TTITLE1=Little Bit Sweet
TTITLE2=Jitterbug Love
TTITLE3=Cry Over Nothing
TTITLE4=Don't Think About My Death
TTITLE5=Little Bit Broken
TTITLE6=The One I Love
TTITLE7=Little Blue
TTITLE8=A Dream's A Dream
TTITLE9=Satisfied
TTITLE10=Little Blue (Reprise)
EXTD=
EXTT0=
EXTT1=
EXTT2=
EXTT3=
EXTT4=
EXTT5=
EXTT6=
EXTT7=
EXTT8=
EXTT9=
EXTT10=
PLAYORDER=
